<svg width="431" height="206" viewBox="0 0 431 206" fill="none" xmlns="http://www.w3.org/2000/svg">
<path d="M252.616 137.976H217.032L211.144 155H192.328L224.456 65.528H245.32L277.448 155H258.504L252.616 137.976ZM247.752 123.64L234.824 86.264L221.896 123.64H247.752ZM374.065 65.656V155H356.145V96.888L332.209 155H318.641L294.577 96.888V155H276.657V65.656H297.009L325.425 132.088L353.841 65.656H374.065ZM396.902 65.656V155H378.982V65.656H396.902Z" fill="url(#paint0_linear_29_1267)"/>
<path d="M40.1104 77.2706C40.7235 77.2706 41.2208 76.7736 41.2208 76.1602C41.2208 75.5471 40.7235 75.0498 40.1104 75.0498C39.497 75.0498 39 75.5471 39 76.1602C39 76.7736 39.497 77.2706 40.1104 77.2706Z" fill="url(#paint1_linear_29_1267)"/>
<path d="M64.6982 77.0856C65.3115 77.0856 65.8086 76.5885 65.8086 75.9752C65.8086 75.3618 65.3115 74.8647 64.6982 74.8647C64.0851 74.8647 63.5878 75.3618 63.5878 75.9752C63.5878 76.5885 64.0851 77.0856 64.6982 77.0856Z" fill="url(#paint2_linear_29_1267)"/>
<path d="M52.4046 84.3307C53.018 84.3307 53.515 83.8334 53.515 83.2203C53.515 82.6069 53.018 82.1099 52.4046 82.1099C51.7915 82.1099 51.2942 82.6069 51.2942 83.2203C51.2942 83.8334 51.7915 84.3307 52.4046 84.3307Z" fill="url(#paint3_linear_29_1267)"/>
<path d="M40.1104 91.6007C40.7235 91.6007 41.2208 91.1034 41.2208 90.4903C41.2208 89.8769 40.7235 89.3799 40.1104 89.3799C39.497 89.3799 39 89.8769 39 90.4903C39 91.1034 39.497 91.6007 40.1104 91.6007Z" fill="url(#paint4_linear_29_1267)"/>
<path d="M101.579 70.7941C102.85 70.7941 103.88 69.7641 103.88 68.494C103.88 67.2236 102.85 66.1938 101.579 66.1938C100.309 66.1938 99.2793 67.2236 99.2793 68.494C99.2793 69.7641 100.309 70.7941 101.579 70.7941Z" fill="url(#paint5_linear_29_1267)"/>
<path d="M89.286 78.0646C90.5563 78.0646 91.5861 77.0346 91.5861 75.7645C91.5861 74.4941 90.5563 73.4644 89.286 73.4644C88.0159 73.4644 86.9858 74.4941 86.9858 75.7645C86.9858 77.0346 88.0159 78.0646 89.286 78.0646Z" fill="url(#paint6_linear_29_1267)"/>
<path d="M76.9918 85.3351C78.2621 85.3351 79.2919 84.3051 79.2919 83.035C79.2919 81.7646 78.2621 80.7349 76.9918 80.7349C75.7214 80.7349 74.6917 81.7646 74.6917 83.035C74.6917 84.3051 75.7214 85.3351 76.9918 85.3351Z" fill="url(#paint7_linear_29_1267)"/>
<path d="M64.6982 92.6056C65.9686 92.6056 66.9983 91.5756 66.9983 90.3055C66.9983 89.0351 65.9686 88.0054 64.6982 88.0054C63.4278 88.0054 62.3981 89.0351 62.3981 90.3055C62.3981 91.5756 63.4278 92.6056 64.6982 92.6056Z" fill="url(#paint8_linear_29_1267)"/>
<path d="M52.4047 99.8493C53.6751 99.8493 54.7049 98.8192 54.7049 97.5492C54.7049 96.2788 53.6751 95.249 52.4047 95.249C51.1344 95.249 50.1046 96.2788 50.1046 97.5492C50.1046 98.8192 51.1344 99.8493 52.4047 99.8493Z" fill="url(#paint9_linear_29_1267)"/>
<path d="M40.1104 105.929C40.7235 105.929 41.2208 105.432 41.2208 104.818C41.2208 104.205 40.7235 103.708 40.1104 103.708C39.497 103.708 39 104.205 39 104.818C39 105.432 39.497 105.929 40.1104 105.929Z" fill="url(#paint10_linear_29_1267)"/>
<path d="M101.58 87.4232C104.12 87.4232 106.18 85.3636 106.18 82.8229C106.18 80.2822 104.12 78.2227 101.58 78.2227C99.039 78.2227 96.9795 80.2822 96.9795 82.8229C96.9795 85.3636 99.039 87.4232 101.58 87.4232Z" fill="url(#paint11_linear_29_1267)"/>
<path d="M89.2862 94.6937C91.8266 94.6937 93.8864 92.6341 93.8864 90.0934C93.8864 87.5527 91.8266 85.4932 89.2862 85.4932C86.7455 85.4932 84.6859 87.5527 84.6859 90.0934C84.6859 92.6341 86.7455 94.6937 89.2862 94.6937Z" fill="url(#paint12_linear_29_1267)"/>
<path d="M76.9921 101.964C79.5328 101.964 81.5923 99.9046 81.5923 97.3639C81.5923 94.8232 79.5328 92.7637 76.9921 92.7637C74.4516 92.7637 72.3918 94.8232 72.3918 97.3639C72.3918 99.9046 74.4516 101.964 76.9921 101.964Z" fill="url(#paint13_linear_29_1267)"/>
<path d="M64.6979 109.207C67.2384 109.207 69.2982 107.148 69.2982 104.607C69.2982 102.066 67.2384 100.007 64.6979 100.007C62.1572 100.007 60.0977 102.066 60.0977 104.607C60.0977 107.148 62.1572 109.207 64.6979 109.207Z" fill="url(#paint14_linear_29_1267)"/>
<path d="M52.4047 114.178C53.6751 114.178 54.7049 113.149 54.7049 111.878C54.7049 110.608 53.6751 109.578 52.4047 109.578C51.1344 109.578 50.1046 110.608 50.1046 111.878C50.1046 113.149 51.1344 114.178 52.4047 114.178Z" fill="url(#paint15_linear_29_1267)"/>
<path d="M40.1104 120.258C40.7235 120.258 41.2208 119.761 41.2208 119.148C41.2208 118.535 40.7235 118.038 40.1104 118.038C39.497 118.038 39 118.535 39 119.148C39 119.761 39.497 120.258 40.1104 120.258Z" fill="url(#paint16_linear_29_1267)"/>
<path d="M101.58 101.753C104.12 101.753 106.18 99.6932 106.18 97.1525C106.18 94.6121 104.12 92.5522 101.58 92.5522C99.039 92.5522 96.9795 94.6121 96.9795 97.1525C96.9795 99.6932 99.039 101.753 101.58 101.753Z" fill="url(#paint17_linear_29_1267)"/>
<path d="M89.2862 109.023C91.8266 109.023 93.8864 106.963 93.8864 104.423C93.8864 101.882 91.8266 99.8223 89.2862 99.8223C86.7455 99.8223 84.6859 101.882 84.6859 104.423C84.6859 106.963 86.7455 109.023 89.2862 109.023Z" fill="url(#paint18_linear_29_1267)"/>
<path d="M76.9921 116.266C79.5328 116.266 81.5923 114.207 81.5923 111.666C81.5923 109.126 79.5328 107.066 76.9921 107.066C74.4516 107.066 72.3918 109.126 72.3918 111.666C72.3918 114.207 74.4516 116.266 76.9921 116.266Z" fill="url(#paint19_linear_29_1267)"/>
<path d="M64.6979 123.537C67.2384 123.537 69.2982 121.477 69.2982 118.937C69.2982 116.396 67.2384 114.336 64.6979 114.336C62.1572 114.336 60.0977 116.396 60.0977 118.937C60.0977 121.477 62.1572 123.537 64.6979 123.537Z" fill="url(#paint20_linear_29_1267)"/>
<path d="M52.4047 128.507C53.6751 128.507 54.7049 127.478 54.7049 126.207C54.7049 124.937 53.6751 123.907 52.4047 123.907C51.1344 123.907 50.1046 124.937 50.1046 126.207C50.1046 127.478 51.1344 128.507 52.4047 128.507Z" fill="url(#paint21_linear_29_1267)"/>
<path d="M40.1104 134.589C40.7235 134.589 41.2208 134.092 41.2208 133.479C41.2208 132.865 40.7235 132.368 40.1104 132.368C39.497 132.368 39 132.865 39 133.479C39 134.092 39.497 134.589 40.1104 134.589Z" fill="url(#paint22_linear_29_1267)"/>
<path d="M101.579 113.782C102.85 113.782 103.88 112.752 103.88 111.482C103.88 110.211 102.85 109.182 101.579 109.182C100.309 109.182 99.2793 110.211 99.2793 111.482C99.2793 112.752 100.309 113.782 101.579 113.782Z" fill="url(#paint23_linear_29_1267)"/>
<path d="M89.286 121.027C90.5563 121.027 91.5861 119.997 91.5861 118.727C91.5861 117.457 90.5563 116.427 89.286 116.427C88.0159 116.427 86.9858 117.457 86.9858 118.727C86.9858 119.997 88.0159 121.027 89.286 121.027Z" fill="url(#paint24_linear_29_1267)"/>
<path d="M76.9918 128.297C78.2621 128.297 79.2919 127.267 79.2919 125.997C79.2919 124.727 78.2621 123.697 76.9918 123.697C75.7214 123.697 74.6917 124.727 74.6917 125.997C74.6917 127.267 75.7214 128.297 76.9918 128.297Z" fill="url(#paint25_linear_29_1267)"/>
<path d="M64.6982 135.568C65.9686 135.568 66.9983 134.538 66.9983 133.267C66.9983 131.997 65.9686 130.967 64.6982 130.967C63.4278 130.967 62.3981 131.997 62.3981 133.267C62.3981 134.538 63.4278 135.568 64.6982 135.568Z" fill="url(#paint26_linear_29_1267)"/>
<path d="M52.4046 141.648C53.018 141.648 53.515 141.151 53.515 140.538C53.515 139.925 53.018 139.427 52.4046 139.427C51.7915 139.427 51.2942 139.925 51.2942 140.538C51.2942 141.151 51.7915 141.648 52.4046 141.648Z" fill="url(#paint27_linear_29_1267)"/>
<path d="M40.1104 148.918C40.7235 148.918 41.2208 148.421 41.2208 147.808C41.2208 147.195 40.7235 146.697 40.1104 146.697C39.497 146.697 39 147.195 39 147.808C39 148.421 39.497 148.918 40.1104 148.918Z" fill="url(#paint28_linear_29_1267)"/>
<path d="M101.579 126.895C102.192 126.895 102.69 126.398 102.69 125.785C102.69 125.172 102.192 124.674 101.579 124.674C100.966 124.674 100.469 125.172 100.469 125.785C100.469 126.398 100.966 126.895 101.579 126.895Z" fill="url(#paint29_linear_29_1267)"/>
<path d="M89.2857 134.166C89.8991 134.166 90.3961 133.669 90.3961 133.055C90.3961 132.442 89.8991 131.945 89.2857 131.945C88.6726 131.945 88.1753 132.442 88.1753 133.055C88.1753 133.669 88.6726 134.166 89.2857 134.166Z" fill="url(#paint30_linear_29_1267)"/>
<path d="M76.9922 141.436C77.6056 141.436 78.1026 140.939 78.1026 140.326C78.1026 139.713 77.6056 139.215 76.9922 139.215C76.3789 139.215 75.8818 139.713 75.8818 140.326C75.8818 140.939 76.3789 141.436 76.9922 141.436Z" fill="url(#paint31_linear_29_1267)"/>
<path d="M64.6982 148.707C65.3115 148.707 65.8086 148.21 65.8086 147.596C65.8086 146.983 65.3115 146.486 64.6982 146.486C64.0851 146.486 63.5878 146.983 63.5878 147.596C63.5878 148.21 64.0851 148.707 64.6982 148.707Z" fill="url(#paint32_linear_29_1267)"/>
<path d="M52.4046 155.977C53.018 155.977 53.515 155.48 53.515 154.866C53.515 154.253 53.018 153.756 52.4046 153.756C51.7915 153.756 51.2942 154.253 51.2942 154.866C51.2942 155.48 51.7915 155.977 52.4046 155.977Z" fill="url(#paint33_linear_29_1267)"/>
<path d="M101.579 141.224C102.192 141.224 102.69 140.727 102.69 140.114C102.69 139.5 102.192 139.003 101.579 139.003C100.966 139.003 100.469 139.5 100.469 140.114C100.469 140.727 100.966 141.224 101.579 141.224Z" fill="url(#paint34_linear_29_1267)"/>
<path d="M89.2857 148.495C89.8991 148.495 90.3961 147.998 90.3961 147.384C90.3961 146.771 89.8991 146.274 89.2857 146.274C88.6726 146.274 88.1753 146.771 88.1753 147.384C88.1753 147.998 88.6726 148.495 89.2857 148.495Z" fill="url(#paint35_linear_29_1267)"/>
<path d="M76.9922 155.765C77.6056 155.765 78.1026 155.268 78.1026 154.655C78.1026 154.041 77.6056 153.544 76.9922 153.544C76.3789 153.544 75.8818 154.041 75.8818 154.655C75.8818 155.268 76.3789 155.765 76.9922 155.765Z" fill="url(#paint36_linear_29_1267)"/>
<path d="M64.6982 163.036C65.3115 163.036 65.8086 162.539 65.8086 161.925C65.8086 161.312 65.3115 160.815 64.6982 160.815C64.0851 160.815 63.5878 161.312 63.5878 161.925C63.5878 162.539 64.0851 163.036 64.6982 163.036Z" fill="url(#paint37_linear_29_1267)"/>
<path d="M101.579 155.554C102.192 155.554 102.69 155.057 102.69 154.443C102.69 153.83 102.192 153.333 101.579 153.333C100.966 153.333 100.469 153.83 100.469 154.443C100.469 155.057 100.966 155.554 101.579 155.554Z" fill="url(#paint38_linear_29_1267)"/>
<path d="M89.2857 162.824C89.8991 162.824 90.3961 162.327 90.3961 161.714C90.3961 161.101 89.8991 160.604 89.2857 160.604C88.6726 160.604 88.1753 161.101 88.1753 161.714C88.1753 162.327 88.6726 162.824 89.2857 162.824Z" fill="url(#paint39_linear_29_1267)"/>
<path d="M76.9922 170.095C77.6056 170.095 78.1026 169.598 78.1026 168.984C78.1026 168.371 77.6056 167.874 76.9922 167.874C76.3789 167.874 75.8818 168.371 75.8818 168.984C75.8818 169.598 76.3789 170.095 76.9922 170.095Z" fill="url(#paint40_linear_29_1267)"/>
<path d="M101.579 169.883C102.192 169.883 102.69 169.386 102.69 168.773C102.69 168.159 102.192 167.662 101.579 167.662C100.966 167.662 100.469 168.159 100.469 168.773C100.469 169.386 100.966 169.883 101.579 169.883Z" fill="url(#paint41_linear_29_1267)"/>
<path d="M89.2857 177.153C89.8991 177.153 90.3961 176.656 90.3961 176.043C90.3961 175.43 89.8991 174.933 89.2857 174.933C88.6726 174.933 88.1753 175.43 88.1753 176.043C88.1753 176.656 88.6726 177.153 89.2857 177.153Z" fill="url(#paint42_linear_29_1267)"/>
<path d="M101.579 184.213C102.192 184.213 102.69 183.716 102.69 183.103C102.69 182.49 102.192 181.993 101.579 181.993C100.966 181.993 100.469 182.49 100.469 183.103C100.469 183.716 100.966 184.213 101.579 184.213Z" fill="url(#paint43_linear_29_1267)"/>
<path d="M162.89 77.2706C163.503 77.2706 164 76.7736 164 76.1602C164 75.5471 163.503 75.0498 162.89 75.0498C162.276 75.0498 161.779 75.5471 161.779 76.1602C161.779 76.7736 162.276 77.2706 162.89 77.2706Z" fill="url(#paint44_linear_29_1267)"/>
<path d="M138.276 77.0856C138.889 77.0856 139.386 76.5885 139.386 75.9752C139.386 75.3618 138.889 74.8647 138.276 74.8647C137.663 74.8647 137.165 75.3618 137.165 75.9752C137.165 76.5885 137.663 77.0856 138.276 77.0856Z" fill="url(#paint45_linear_29_1267)"/>
<path d="M150.596 84.3307C151.209 84.3307 151.706 83.8334 151.706 83.2203C151.706 82.6069 151.209 82.1099 150.596 82.1099C149.983 82.1099 149.485 82.6069 149.485 83.2203C149.485 83.8334 149.983 84.3307 150.596 84.3307Z" fill="url(#paint46_linear_29_1267)"/>
<path d="M162.89 91.6007C163.503 91.6007 164 91.1034 164 90.4903C164 89.8769 163.503 89.3799 162.89 89.3799C162.276 89.3799 161.779 89.8769 161.779 90.4903C161.779 91.1034 162.276 91.6007 162.89 91.6007Z" fill="url(#paint47_linear_29_1267)"/>
<path d="M101.394 70.7941C102.664 70.7941 103.694 69.7641 103.694 68.494C103.694 67.2236 102.664 66.1938 101.394 66.1938C100.124 66.1938 99.094 67.2236 99.094 68.494C99.094 69.7641 100.124 70.7941 101.394 70.7941Z" fill="url(#paint48_linear_29_1267)"/>
<path d="M113.689 78.0646C114.959 78.0646 115.988 77.0346 115.988 75.7645C115.988 74.4941 114.959 73.4644 113.689 73.4644C112.418 73.4644 111.388 74.4941 111.388 75.7645C111.388 77.0346 112.418 78.0646 113.689 78.0646Z" fill="url(#paint49_linear_29_1267)"/>
<path d="M125.983 85.3351C127.253 85.3351 128.283 84.3051 128.283 83.035C128.283 81.7646 127.253 80.7349 125.983 80.7349C124.712 80.7349 123.682 81.7646 123.682 83.035C123.682 84.3051 124.712 85.3351 125.983 85.3351Z" fill="url(#paint50_linear_29_1267)"/>
<path d="M138.276 92.6056C139.546 92.6056 140.576 91.5756 140.576 90.3055C140.576 89.0351 139.546 88.0054 138.276 88.0054C137.006 88.0054 135.976 89.0351 135.976 90.3055C135.976 91.5756 137.006 92.6056 138.276 92.6056Z" fill="url(#paint51_linear_29_1267)"/>
<path d="M150.596 99.8493C151.866 99.8493 152.896 98.8192 152.896 97.5492C152.896 96.2788 151.866 95.249 150.596 95.249C149.326 95.249 148.296 96.2788 148.296 97.5492C148.296 98.8192 149.326 99.8493 150.596 99.8493Z" fill="url(#paint52_linear_29_1267)"/>
<path d="M162.89 105.929C163.503 105.929 164 105.432 164 104.818C164 104.205 163.503 103.708 162.89 103.708C162.276 103.708 161.779 104.205 161.779 104.818C161.779 105.432 162.276 105.929 162.89 105.929Z" fill="url(#paint53_linear_29_1267)"/>
<path d="M101.394 87.4232C103.935 87.4232 105.995 85.3636 105.995 82.8229C105.995 80.2822 103.935 78.2227 101.394 78.2227C98.8537 78.2227 96.7942 80.2822 96.7942 82.8229C96.7942 85.3636 98.8537 87.4232 101.394 87.4232Z" fill="url(#paint54_linear_29_1267)"/>
<path d="M113.689 94.6937C116.229 94.6937 118.289 92.6341 118.289 90.0934C118.289 87.5527 116.229 85.4932 113.689 85.4932C111.148 85.4932 109.088 87.5527 109.088 90.0934C109.088 92.6341 111.148 94.6937 113.689 94.6937Z" fill="url(#paint55_linear_29_1267)"/>
<path d="M125.982 101.964C128.523 101.964 130.582 99.9046 130.582 97.3639C130.582 94.8232 128.523 92.7637 125.982 92.7637C123.441 92.7637 121.382 94.8232 121.382 97.3639C121.382 99.9046 123.441 101.964 125.982 101.964Z" fill="url(#paint56_linear_29_1267)"/>
<path d="M138.275 109.207C140.816 109.207 142.876 107.148 142.876 104.607C142.876 102.066 140.816 100.007 138.275 100.007C135.735 100.007 133.675 102.066 133.675 104.607C133.675 107.148 135.735 109.207 138.275 109.207Z" fill="url(#paint57_linear_29_1267)"/>
<path d="M150.596 114.178C151.866 114.178 152.896 113.149 152.896 111.878C152.896 110.608 151.866 109.578 150.596 109.578C149.326 109.578 148.296 110.608 148.296 111.878C148.296 113.149 149.326 114.178 150.596 114.178Z" fill="url(#paint58_linear_29_1267)"/>
<path d="M162.89 120.258C163.503 120.258 164 119.761 164 119.148C164 118.535 163.503 118.038 162.89 118.038C162.276 118.038 161.779 118.535 161.779 119.148C161.779 119.761 162.276 120.258 162.89 120.258Z" fill="url(#paint59_linear_29_1267)"/>
<path d="M101.394 101.753C103.935 101.753 105.995 99.6932 105.995 97.1525C105.995 94.6121 103.935 92.5522 101.394 92.5522C98.8537 92.5522 96.7942 94.6121 96.7942 97.1525C96.7942 99.6932 98.8537 101.753 101.394 101.753Z" fill="url(#paint60_linear_29_1267)"/>
<path d="M113.689 109.023C116.229 109.023 118.289 106.963 118.289 104.423C118.289 101.882 116.229 99.8223 113.689 99.8223C111.148 99.8223 109.088 101.882 109.088 104.423C109.088 106.963 111.148 109.023 113.689 109.023Z" fill="url(#paint61_linear_29_1267)"/>
<path d="M125.982 116.266C128.523 116.266 130.582 114.207 130.582 111.666C130.582 109.126 128.523 107.066 125.982 107.066C123.441 107.066 121.382 109.126 121.382 111.666C121.382 114.207 123.441 116.266 125.982 116.266Z" fill="url(#paint62_linear_29_1267)"/>
<path d="M138.275 123.537C140.816 123.537 142.876 121.477 142.876 118.937C142.876 116.396 140.816 114.336 138.275 114.336C135.735 114.336 133.675 116.396 133.675 118.937C133.675 121.477 135.735 123.537 138.275 123.537Z" fill="url(#paint63_linear_29_1267)"/>
<path d="M150.596 128.507C151.866 128.507 152.896 127.478 152.896 126.207C152.896 124.937 151.866 123.907 150.596 123.907C149.326 123.907 148.296 124.937 148.296 126.207C148.296 127.478 149.326 128.507 150.596 128.507Z" fill="url(#paint64_linear_29_1267)"/>
<path d="M162.89 134.589C163.503 134.589 164 134.092 164 133.479C164 132.865 163.503 132.368 162.89 132.368C162.276 132.368 161.779 132.865 161.779 133.479C161.779 134.092 162.276 134.589 162.89 134.589Z" fill="url(#paint65_linear_29_1267)"/>
<path d="M101.394 113.782C102.664 113.782 103.694 112.752 103.694 111.482C103.694 110.211 102.664 109.182 101.394 109.182C100.124 109.182 99.094 110.211 99.094 111.482C99.094 112.752 100.124 113.782 101.394 113.782Z" fill="url(#paint66_linear_29_1267)"/>
<path d="M113.689 121.027C114.959 121.027 115.988 119.997 115.988 118.727C115.988 117.457 114.959 116.427 113.689 116.427C112.418 116.427 111.388 117.457 111.388 118.727C111.388 119.997 112.418 121.027 113.689 121.027Z" fill="url(#paint67_linear_29_1267)"/>
<path d="M125.983 128.297C127.253 128.297 128.283 127.267 128.283 125.997C128.283 124.727 127.253 123.697 125.983 123.697C124.712 123.697 123.682 124.727 123.682 125.997C123.682 127.267 124.712 128.297 125.983 128.297Z" fill="url(#paint68_linear_29_1267)"/>
<path d="M138.276 135.568C139.546 135.568 140.576 134.538 140.576 133.267C140.576 131.997 139.546 130.967 138.276 130.967C137.006 130.967 135.976 131.997 135.976 133.267C135.976 134.538 137.006 135.568 138.276 135.568Z" fill="url(#paint69_linear_29_1267)"/>
<path d="M150.596 141.648C151.209 141.648 151.706 141.151 151.706 140.538C151.706 139.925 151.209 139.427 150.596 139.427C149.983 139.427 149.485 139.925 149.485 140.538C149.485 141.151 149.983 141.648 150.596 141.648Z" fill="url(#paint70_linear_29_1267)"/>
<path d="M162.89 148.918C163.503 148.918 164 148.421 164 147.808C164 147.195 163.503 146.697 162.89 146.697C162.276 146.697 161.779 147.195 161.779 147.808C161.779 148.421 162.276 148.918 162.89 148.918Z" fill="url(#paint71_linear_29_1267)"/>
<path d="M101.395 126.895C102.008 126.895 102.505 126.398 102.505 125.785C102.505 125.172 102.008 124.674 101.395 124.674C100.781 124.674 100.284 125.172 100.284 125.785C100.284 126.398 100.781 126.895 101.395 126.895Z" fill="url(#paint72_linear_29_1267)"/>
<path d="M113.688 134.166C114.302 134.166 114.799 133.669 114.799 133.055C114.799 132.442 114.302 131.945 113.688 131.945C113.075 131.945 112.578 132.442 112.578 133.055C112.578 133.669 113.075 134.166 113.688 134.166Z" fill="url(#paint73_linear_29_1267)"/>
<path d="M125.982 141.436C126.595 141.436 127.092 140.939 127.092 140.326C127.092 139.713 126.595 139.215 125.982 139.215C125.368 139.215 124.871 139.713 124.871 140.326C124.871 140.939 125.368 141.436 125.982 141.436Z" fill="url(#paint74_linear_29_1267)"/>
<path d="M138.276 148.707C138.889 148.707 139.386 148.21 139.386 147.596C139.386 146.983 138.889 146.486 138.276 146.486C137.663 146.486 137.165 146.983 137.165 147.596C137.165 148.21 137.663 148.707 138.276 148.707Z" fill="url(#paint75_linear_29_1267)"/>
<path d="M150.596 155.977C151.209 155.977 151.706 155.48 151.706 154.866C151.706 154.253 151.209 153.756 150.596 153.756C149.983 153.756 149.485 154.253 149.485 154.866C149.485 155.48 149.983 155.977 150.596 155.977Z" fill="url(#paint76_linear_29_1267)"/>
<path d="M101.395 141.224C102.008 141.224 102.505 140.727 102.505 140.114C102.505 139.5 102.008 139.003 101.395 139.003C100.781 139.003 100.284 139.5 100.284 140.114C100.284 140.727 100.781 141.224 101.395 141.224Z" fill="url(#paint77_linear_29_1267)"/>
<path d="M113.688 148.495C114.302 148.495 114.799 147.998 114.799 147.384C114.799 146.771 114.302 146.274 113.688 146.274C113.075 146.274 112.578 146.771 112.578 147.384C112.578 147.998 113.075 148.495 113.688 148.495Z" fill="url(#paint78_linear_29_1267)"/>
<path d="M125.982 155.765C126.595 155.765 127.092 155.268 127.092 154.655C127.092 154.041 126.595 153.544 125.982 153.544C125.368 153.544 124.871 154.041 124.871 154.655C124.871 155.268 125.368 155.765 125.982 155.765Z" fill="url(#paint79_linear_29_1267)"/>
<path d="M138.276 163.036C138.889 163.036 139.386 162.539 139.386 161.925C139.386 161.312 138.889 160.815 138.276 160.815C137.663 160.815 137.165 161.312 137.165 161.925C137.165 162.539 137.663 163.036 138.276 163.036Z" fill="url(#paint80_linear_29_1267)"/>
<path d="M101.395 155.554C102.008 155.554 102.505 155.057 102.505 154.443C102.505 153.83 102.008 153.333 101.395 153.333C100.781 153.333 100.284 153.83 100.284 154.443C100.284 155.057 100.781 155.554 101.395 155.554Z" fill="url(#paint81_linear_29_1267)"/>
<path d="M113.688 162.824C114.302 162.824 114.799 162.327 114.799 161.714C114.799 161.101 114.302 160.604 113.688 160.604C113.075 160.604 112.578 161.101 112.578 161.714C112.578 162.327 113.075 162.824 113.688 162.824Z" fill="url(#paint82_linear_29_1267)"/>
<path d="M125.982 170.095C126.595 170.095 127.092 169.598 127.092 168.984C127.092 168.371 126.595 167.874 125.982 167.874C125.368 167.874 124.871 168.371 124.871 168.984C124.871 169.598 125.368 170.095 125.982 170.095Z" fill="url(#paint83_linear_29_1267)"/>
<path d="M101.395 169.883C102.008 169.883 102.505 169.386 102.505 168.773C102.505 168.159 102.008 167.662 101.395 167.662C100.781 167.662 100.284 168.159 100.284 168.773C100.284 169.386 100.781 169.883 101.395 169.883Z" fill="url(#paint84_linear_29_1267)"/>
<path d="M113.688 177.153C114.302 177.153 114.799 176.656 114.799 176.043C114.799 175.43 114.302 174.933 113.688 174.933C113.075 174.933 112.578 175.43 112.578 176.043C112.578 176.656 113.075 177.153 113.688 177.153Z" fill="url(#paint85_linear_29_1267)"/>
<path d="M101.395 184.213C102.008 184.213 102.505 183.716 102.505 183.103C102.505 182.49 102.008 181.993 101.395 181.993C100.781 181.993 100.284 182.49 100.284 183.103C100.284 183.716 100.781 184.213 101.395 184.213Z" fill="url(#paint86_linear_29_1267)"/>
<path d="M100.126 38.2211C100.739 38.2211 101.236 37.724 101.236 37.1106C101.236 36.4975 100.739 36.0002 100.126 36.0002C99.5123 36.0002 99.0153 36.4975 99.0153 37.1106C99.0153 37.724 99.5123 38.2211 100.126 38.2211Z" fill="url(#paint87_linear_29_1267)"/>
<path d="M87.8319 45.4916C88.445 45.4916 88.942 44.9945 88.942 44.3812C88.942 43.7681 88.445 43.2708 87.8319 43.2708C87.2185 43.2708 86.7212 43.7681 86.7212 44.3812C86.7212 44.9945 87.2185 45.4916 87.8319 45.4916Z" fill="url(#paint88_linear_29_1267)"/>
<path d="M75.5374 52.7621C76.1508 52.7621 76.6478 52.265 76.6478 51.6517C76.6478 51.0386 76.1508 50.5413 75.5374 50.5413C74.9243 50.5413 74.427 51.0386 74.427 51.6517C74.427 52.265 74.9243 52.7621 75.5374 52.7621Z" fill="url(#paint89_linear_29_1267)"/>
<path d="M63.2438 60.0326C63.8569 60.0326 64.3542 59.5355 64.3542 58.9222C64.3542 58.3091 63.8569 57.8118 63.2438 57.8118C62.6305 57.8118 62.1334 58.3091 62.1334 58.9222C62.1334 59.5355 62.6305 60.0326 63.2438 60.0326Z" fill="url(#paint90_linear_29_1267)"/>
<path d="M50.9504 67.3033C51.5635 67.3033 52.0608 66.8063 52.0608 66.1929C52.0608 65.5798 51.5635 65.0825 50.9504 65.0825C50.337 65.0825 49.84 65.5798 49.84 66.1929C49.84 66.8063 50.337 67.3033 50.9504 67.3033Z" fill="url(#paint91_linear_29_1267)"/>
<path d="M100.126 52.5516C100.739 52.5516 101.236 52.0543 101.236 51.4412C101.236 50.8278 100.739 50.3308 100.126 50.3308C99.5123 50.3308 99.0153 50.8278 99.0153 51.4412C99.0153 52.0543 99.5123 52.5516 100.126 52.5516Z" fill="url(#paint92_linear_29_1267)"/>
<path d="M87.8319 59.8221C88.445 59.8221 88.942 59.3248 88.942 58.7117C88.942 58.0984 88.445 57.6013 87.8319 57.6013C87.2185 57.6013 86.7212 58.0984 86.7212 58.7117C86.7212 59.3248 87.2185 59.8221 87.8319 59.8221Z" fill="url(#paint93_linear_29_1267)"/>
<path d="M75.5374 67.0929C76.1508 67.0929 76.6478 66.5956 76.6478 65.9825C76.6478 65.3691 76.1508 64.8721 75.5374 64.8721C74.9243 64.8721 74.427 65.3691 74.427 65.9825C74.427 66.5956 74.9243 67.0929 75.5374 67.0929Z" fill="url(#paint94_linear_29_1267)"/>
<path d="M99.9404 38.2211C100.554 38.2211 101.051 37.724 101.051 37.1106C101.051 36.4975 100.554 36.0002 99.9404 36.0002C99.3273 36.0002 98.83 36.4975 98.83 37.1106C98.83 37.724 99.3273 38.2211 99.9404 38.2211Z" fill="url(#paint95_linear_29_1267)"/>
<path d="M112.234 45.4916C112.847 45.4916 113.344 44.9945 113.344 44.3812C113.344 43.7681 112.847 43.2708 112.234 43.2708C111.621 43.2708 111.124 43.7681 111.124 44.3812C111.124 44.9945 111.621 45.4916 112.234 45.4916Z" fill="url(#paint96_linear_29_1267)"/>
<path d="M124.528 52.7621C125.141 52.7621 125.639 52.265 125.639 51.6517C125.639 51.0386 125.141 50.5413 124.528 50.5413C123.915 50.5413 123.418 51.0386 123.418 51.6517C123.418 52.265 123.915 52.7621 124.528 52.7621Z" fill="url(#paint97_linear_29_1267)"/>
<path d="M136.822 60.0326C137.435 60.0326 137.932 59.5355 137.932 58.9222C137.932 58.3091 137.435 57.8118 136.822 57.8118C136.208 57.8118 135.711 58.3091 135.711 58.9222C135.711 59.5355 136.208 60.0326 136.822 60.0326Z" fill="url(#paint98_linear_29_1267)"/>
<path d="M149.142 67.3033C149.755 67.3033 150.252 66.8063 150.252 66.1929C150.252 65.5798 149.755 65.0825 149.142 65.0825C148.528 65.0825 148.031 65.5798 148.031 66.1929C148.031 66.8063 148.528 67.3033 149.142 67.3033Z" fill="url(#paint99_linear_29_1267)"/>
<path d="M99.9404 52.5516C100.554 52.5516 101.051 52.0543 101.051 51.4412C101.051 50.8278 100.554 50.3308 99.9404 50.3308C99.3273 50.3308 98.83 50.8278 98.83 51.4412C98.83 52.0543 99.3273 52.5516 99.9404 52.5516Z" fill="url(#paint100_linear_29_1267)"/>
<path d="M112.234 59.8221C112.847 59.8221 113.344 59.3248 113.344 58.7117C113.344 58.0984 112.847 57.6013 112.234 57.6013C111.621 57.6013 111.124 58.0984 111.124 58.7117C111.124 59.3248 111.621 59.8221 112.234 59.8221Z" fill="url(#paint101_linear_29_1267)"/>
<path d="M124.528 67.0929C125.141 67.0929 125.639 66.5956 125.639 65.9825C125.639 65.3691 125.141 64.8721 124.528 64.8721C123.915 64.8721 123.418 65.3691 123.418 65.9825C123.418 66.5956 123.915 67.0929 124.528 67.0929Z" fill="url(#paint102_linear_29_1267)"/>
<defs>
<linearGradient id="paint0_linear_29_1267" x1="267.584" y1="297.5" x2="262.546" y2="27.019" gradientUnits="userSpaceOnUse">
<stop stop-color="#0561E2"/>
<stop offset="1" stop-color="#00357F"/>
</linearGradient>
<linearGradient id="paint1_linear_29_1267" x1="39.5871" y1="76.8721" x2="41.0888" y2="73.9116" gradientUnits="userSpaceOnUse">
<stop stop-color="#0561E2"/>
<stop offset="1" stop-color="#001737"/>
</linearGradient>
<linearGradient id="paint2_linear_29_1267" x1="64.1749" y1="76.687" x2="65.6766" y2="73.7266" gradientUnits="userSpaceOnUse">
<stop stop-color="#0561E2"/>
<stop offset="1" stop-color="#001737"/>
</linearGradient>
<linearGradient id="paint3_linear_29_1267" x1="51.8813" y1="83.9321" x2="53.383" y2="80.9717" gradientUnits="userSpaceOnUse">
<stop stop-color="#0561E2"/>
<stop offset="1" stop-color="#001737"/>
</linearGradient>
<linearGradient id="paint4_linear_29_1267" x1="39.5871" y1="91.2022" x2="41.0888" y2="88.2417" gradientUnits="userSpaceOnUse">
<stop stop-color="#0561E2"/>
<stop offset="1" stop-color="#001737"/>
</linearGradient>
<linearGradient id="paint5_linear_29_1267" x1="100.496" y1="69.9686" x2="103.606" y2="63.8362" gradientUnits="userSpaceOnUse">
<stop stop-color="#0561E2"/>
<stop offset="1" stop-color="#001737"/>
</linearGradient>
<linearGradient id="paint6_linear_29_1267" x1="88.2021" y1="77.2391" x2="91.3127" y2="71.1067" gradientUnits="userSpaceOnUse">
<stop stop-color="#0561E2"/>
<stop offset="1" stop-color="#001737"/>
</linearGradient>
<linearGradient id="paint7_linear_29_1267" x1="75.9079" y1="84.5096" x2="79.0185" y2="78.3772" gradientUnits="userSpaceOnUse">
<stop stop-color="#0561E2"/>
<stop offset="1" stop-color="#001737"/>
</linearGradient>
<linearGradient id="paint8_linear_29_1267" x1="63.6143" y1="91.7801" x2="66.725" y2="85.6477" gradientUnits="userSpaceOnUse">
<stop stop-color="#0561E2"/>
<stop offset="1" stop-color="#001737"/>
</linearGradient>
<linearGradient id="paint9_linear_29_1267" x1="51.3208" y1="99.0237" x2="54.4315" y2="92.8913" gradientUnits="userSpaceOnUse">
<stop stop-color="#0561E2"/>
<stop offset="1" stop-color="#001737"/>
</linearGradient>
<linearGradient id="paint10_linear_29_1267" x1="39.5871" y1="105.53" x2="41.0888" y2="102.57" gradientUnits="userSpaceOnUse">
<stop stop-color="#0561E2"/>
<stop offset="1" stop-color="#001737"/>
</linearGradient>
<linearGradient id="paint11_linear_29_1267" x1="99.4119" y1="85.7721" x2="105.633" y2="73.5073" gradientUnits="userSpaceOnUse">
<stop stop-color="#0561E2"/>
<stop offset="1" stop-color="#001737"/>
</linearGradient>
<linearGradient id="paint12_linear_29_1267" x1="87.1184" y1="93.0426" x2="93.3397" y2="80.7778" gradientUnits="userSpaceOnUse">
<stop stop-color="#0561E2"/>
<stop offset="1" stop-color="#001737"/>
</linearGradient>
<linearGradient id="paint13_linear_29_1267" x1="74.8243" y1="100.313" x2="81.0456" y2="88.0483" gradientUnits="userSpaceOnUse">
<stop stop-color="#0561E2"/>
<stop offset="1" stop-color="#001737"/>
</linearGradient>
<linearGradient id="paint14_linear_29_1267" x1="62.5301" y1="107.556" x2="68.7514" y2="95.2915" gradientUnits="userSpaceOnUse">
<stop stop-color="#0561E2"/>
<stop offset="1" stop-color="#001737"/>
</linearGradient>
<linearGradient id="paint15_linear_29_1267" x1="51.3208" y1="113.353" x2="54.4315" y2="107.22" gradientUnits="userSpaceOnUse">
<stop stop-color="#0561E2"/>
<stop offset="1" stop-color="#001737"/>
</linearGradient>
<linearGradient id="paint16_linear_29_1267" x1="39.5871" y1="119.86" x2="41.0889" y2="116.899" gradientUnits="userSpaceOnUse">
<stop stop-color="#0561E2"/>
<stop offset="1" stop-color="#001737"/>
</linearGradient>
<linearGradient id="paint17_linear_29_1267" x1="99.4119" y1="100.102" x2="105.633" y2="87.8369" gradientUnits="userSpaceOnUse">
<stop stop-color="#0561E2"/>
<stop offset="1" stop-color="#001737"/>
</linearGradient>
<linearGradient id="paint18_linear_29_1267" x1="87.1184" y1="107.372" x2="93.3397" y2="95.1069" gradientUnits="userSpaceOnUse">
<stop stop-color="#0561E2"/>
<stop offset="1" stop-color="#001737"/>
</linearGradient>
<linearGradient id="paint19_linear_29_1267" x1="74.8243" y1="114.615" x2="81.0456" y2="102.351" gradientUnits="userSpaceOnUse">
<stop stop-color="#0561E2"/>
<stop offset="1" stop-color="#001737"/>
</linearGradient>
<linearGradient id="paint20_linear_29_1267" x1="62.5301" y1="121.886" x2="68.7514" y2="109.621" gradientUnits="userSpaceOnUse">
<stop stop-color="#0561E2"/>
<stop offset="1" stop-color="#001737"/>
</linearGradient>
<linearGradient id="paint21_linear_29_1267" x1="51.3208" y1="127.682" x2="54.4315" y2="121.55" gradientUnits="userSpaceOnUse">
<stop stop-color="#0561E2"/>
<stop offset="1" stop-color="#001737"/>
</linearGradient>
<linearGradient id="paint22_linear_29_1267" x1="39.5871" y1="134.19" x2="41.0888" y2="131.23" gradientUnits="userSpaceOnUse">
<stop stop-color="#0561E2"/>
<stop offset="1" stop-color="#001737"/>
</linearGradient>
<linearGradient id="paint23_linear_29_1267" x1="100.496" y1="112.956" x2="103.606" y2="106.824" gradientUnits="userSpaceOnUse">
<stop stop-color="#0561E2"/>
<stop offset="1" stop-color="#001737"/>
</linearGradient>
<linearGradient id="paint24_linear_29_1267" x1="88.2021" y1="120.201" x2="91.3127" y2="114.069" gradientUnits="userSpaceOnUse">
<stop stop-color="#0561E2"/>
<stop offset="1" stop-color="#001737"/>
</linearGradient>
<linearGradient id="paint25_linear_29_1267" x1="75.9079" y1="127.472" x2="79.0186" y2="121.339" gradientUnits="userSpaceOnUse">
<stop stop-color="#0561E2"/>
<stop offset="1" stop-color="#001737"/>
</linearGradient>
<linearGradient id="paint26_linear_29_1267" x1="63.6143" y1="134.742" x2="66.725" y2="128.61" gradientUnits="userSpaceOnUse">
<stop stop-color="#0561E2"/>
<stop offset="1" stop-color="#001737"/>
</linearGradient>
<linearGradient id="paint27_linear_29_1267" x1="51.8813" y1="141.25" x2="53.383" y2="138.289" gradientUnits="userSpaceOnUse">
<stop stop-color="#0561E2"/>
<stop offset="1" stop-color="#001737"/>
</linearGradient>
<linearGradient id="paint28_linear_29_1267" x1="39.5871" y1="148.52" x2="41.0888" y2="145.559" gradientUnits="userSpaceOnUse">
<stop stop-color="#0561E2"/>
<stop offset="1" stop-color="#001737"/>
</linearGradient>
<linearGradient id="paint29_linear_29_1267" x1="101.056" y1="126.497" x2="102.558" y2="123.536" gradientUnits="userSpaceOnUse">
<stop stop-color="#0561E2"/>
<stop offset="1" stop-color="#001737"/>
</linearGradient>
<linearGradient id="paint30_linear_29_1267" x1="88.7624" y1="133.767" x2="90.2641" y2="130.807" gradientUnits="userSpaceOnUse">
<stop stop-color="#0561E2"/>
<stop offset="1" stop-color="#001737"/>
</linearGradient>
<linearGradient id="paint31_linear_29_1267" x1="76.469" y1="141.038" x2="77.9707" y2="138.077" gradientUnits="userSpaceOnUse">
<stop stop-color="#0561E2"/>
<stop offset="1" stop-color="#001737"/>
</linearGradient>
<linearGradient id="paint32_linear_29_1267" x1="64.1749" y1="148.308" x2="65.6766" y2="145.348" gradientUnits="userSpaceOnUse">
<stop stop-color="#0561E2"/>
<stop offset="1" stop-color="#001737"/>
</linearGradient>
<linearGradient id="paint33_linear_29_1267" x1="51.8813" y1="155.578" x2="53.383" y2="152.618" gradientUnits="userSpaceOnUse">
<stop stop-color="#0561E2"/>
<stop offset="1" stop-color="#001737"/>
</linearGradient>
<linearGradient id="paint34_linear_29_1267" x1="101.056" y1="140.826" x2="102.558" y2="137.865" gradientUnits="userSpaceOnUse">
<stop stop-color="#0561E2"/>
<stop offset="1" stop-color="#001737"/>
</linearGradient>
<linearGradient id="paint35_linear_29_1267" x1="88.7624" y1="148.096" x2="90.2641" y2="145.136" gradientUnits="userSpaceOnUse">
<stop stop-color="#0561E2"/>
<stop offset="1" stop-color="#001737"/>
</linearGradient>
<linearGradient id="paint36_linear_29_1267" x1="76.469" y1="155.367" x2="77.9707" y2="152.406" gradientUnits="userSpaceOnUse">
<stop stop-color="#0561E2"/>
<stop offset="1" stop-color="#001737"/>
</linearGradient>
<linearGradient id="paint37_linear_29_1267" x1="64.1749" y1="162.637" x2="65.6766" y2="159.677" gradientUnits="userSpaceOnUse">
<stop stop-color="#0561E2"/>
<stop offset="1" stop-color="#001737"/>
</linearGradient>
<linearGradient id="paint38_linear_29_1267" x1="101.056" y1="155.155" x2="102.558" y2="152.195" gradientUnits="userSpaceOnUse">
<stop stop-color="#0561E2"/>
<stop offset="1" stop-color="#001737"/>
</linearGradient>
<linearGradient id="paint39_linear_29_1267" x1="88.7624" y1="162.426" x2="90.2641" y2="159.465" gradientUnits="userSpaceOnUse">
<stop stop-color="#0561E2"/>
<stop offset="1" stop-color="#001737"/>
</linearGradient>
<linearGradient id="paint40_linear_29_1267" x1="76.469" y1="169.696" x2="77.9707" y2="166.736" gradientUnits="userSpaceOnUse">
<stop stop-color="#0561E2"/>
<stop offset="1" stop-color="#001737"/>
</linearGradient>
<linearGradient id="paint41_linear_29_1267" x1="101.056" y1="169.484" x2="102.558" y2="166.524" gradientUnits="userSpaceOnUse">
<stop stop-color="#0561E2"/>
<stop offset="1" stop-color="#001737"/>
</linearGradient>
<linearGradient id="paint42_linear_29_1267" x1="88.7624" y1="176.755" x2="90.2641" y2="173.794" gradientUnits="userSpaceOnUse">
<stop stop-color="#0561E2"/>
<stop offset="1" stop-color="#001737"/>
</linearGradient>
<linearGradient id="paint43_linear_29_1267" x1="101.056" y1="183.815" x2="102.558" y2="180.854" gradientUnits="userSpaceOnUse">
<stop stop-color="#0561E2"/>
<stop offset="1" stop-color="#001737"/>
</linearGradient>
<linearGradient id="paint44_linear_29_1267" x1="162.366" y1="76.8721" x2="163.868" y2="73.9115" gradientUnits="userSpaceOnUse">
<stop stop-color="#0561E2"/>
<stop offset="1" stop-color="#001737"/>
</linearGradient>
<linearGradient id="paint45_linear_29_1267" x1="137.753" y1="76.687" x2="139.254" y2="73.7265" gradientUnits="userSpaceOnUse">
<stop stop-color="#0561E2"/>
<stop offset="1" stop-color="#001737"/>
</linearGradient>
<linearGradient id="paint46_linear_29_1267" x1="150.073" y1="83.9321" x2="151.574" y2="80.9717" gradientUnits="userSpaceOnUse">
<stop stop-color="#0561E2"/>
<stop offset="1" stop-color="#001737"/>
</linearGradient>
<linearGradient id="paint47_linear_29_1267" x1="162.366" y1="91.2022" x2="163.868" y2="88.2416" gradientUnits="userSpaceOnUse">
<stop stop-color="#0561E2"/>
<stop offset="1" stop-color="#001737"/>
</linearGradient>
<linearGradient id="paint48_linear_29_1267" x1="100.31" y1="69.9686" x2="103.421" y2="63.8362" gradientUnits="userSpaceOnUse">
<stop stop-color="#0561E2"/>
<stop offset="1" stop-color="#001737"/>
</linearGradient>
<linearGradient id="paint49_linear_29_1267" x1="112.604" y1="77.2391" x2="115.715" y2="71.1067" gradientUnits="userSpaceOnUse">
<stop stop-color="#0561E2"/>
<stop offset="1" stop-color="#001737"/>
</linearGradient>
<linearGradient id="paint50_linear_29_1267" x1="124.899" y1="84.5096" x2="128.009" y2="78.3772" gradientUnits="userSpaceOnUse">
<stop stop-color="#0561E2"/>
<stop offset="1" stop-color="#001737"/>
</linearGradient>
<linearGradient id="paint51_linear_29_1267" x1="137.192" y1="91.7801" x2="140.303" y2="85.6477" gradientUnits="userSpaceOnUse">
<stop stop-color="#0561E2"/>
<stop offset="1" stop-color="#001737"/>
</linearGradient>
<linearGradient id="paint52_linear_29_1267" x1="149.512" y1="99.0237" x2="152.623" y2="92.8913" gradientUnits="userSpaceOnUse">
<stop stop-color="#0561E2"/>
<stop offset="1" stop-color="#001737"/>
</linearGradient>
<linearGradient id="paint53_linear_29_1267" x1="162.366" y1="105.53" x2="163.868" y2="102.57" gradientUnits="userSpaceOnUse">
<stop stop-color="#0561E2"/>
<stop offset="1" stop-color="#001737"/>
</linearGradient>
<linearGradient id="paint54_linear_29_1267" x1="99.2266" y1="85.7721" x2="105.448" y2="73.5073" gradientUnits="userSpaceOnUse">
<stop stop-color="#0561E2"/>
<stop offset="1" stop-color="#001737"/>
</linearGradient>
<linearGradient id="paint55_linear_29_1267" x1="111.521" y1="93.0426" x2="117.742" y2="80.7778" gradientUnits="userSpaceOnUse">
<stop stop-color="#0561E2"/>
<stop offset="1" stop-color="#001737"/>
</linearGradient>
<linearGradient id="paint56_linear_29_1267" x1="123.814" y1="100.313" x2="130.036" y2="88.0483" gradientUnits="userSpaceOnUse">
<stop stop-color="#0561E2"/>
<stop offset="1" stop-color="#001737"/>
</linearGradient>
<linearGradient id="paint57_linear_29_1267" x1="136.108" y1="107.556" x2="142.329" y2="95.2916" gradientUnits="userSpaceOnUse">
<stop stop-color="#0561E2"/>
<stop offset="1" stop-color="#001737"/>
</linearGradient>
<linearGradient id="paint58_linear_29_1267" x1="149.512" y1="113.353" x2="152.623" y2="107.22" gradientUnits="userSpaceOnUse">
<stop stop-color="#0561E2"/>
<stop offset="1" stop-color="#001737"/>
</linearGradient>
<linearGradient id="paint59_linear_29_1267" x1="162.366" y1="119.86" x2="163.868" y2="116.899" gradientUnits="userSpaceOnUse">
<stop stop-color="#0561E2"/>
<stop offset="1" stop-color="#001737"/>
</linearGradient>
<linearGradient id="paint60_linear_29_1267" x1="99.2266" y1="100.102" x2="105.448" y2="87.8369" gradientUnits="userSpaceOnUse">
<stop stop-color="#0561E2"/>
<stop offset="1" stop-color="#001737"/>
</linearGradient>
<linearGradient id="paint61_linear_29_1267" x1="111.521" y1="107.372" x2="117.742" y2="95.1069" gradientUnits="userSpaceOnUse">
<stop stop-color="#0561E2"/>
<stop offset="1" stop-color="#001737"/>
</linearGradient>
<linearGradient id="paint62_linear_29_1267" x1="123.814" y1="114.615" x2="130.036" y2="102.351" gradientUnits="userSpaceOnUse">
<stop stop-color="#0561E2"/>
<stop offset="1" stop-color="#001737"/>
</linearGradient>
<linearGradient id="paint63_linear_29_1267" x1="136.108" y1="121.886" x2="142.329" y2="109.621" gradientUnits="userSpaceOnUse">
<stop stop-color="#0561E2"/>
<stop offset="1" stop-color="#001737"/>
</linearGradient>
<linearGradient id="paint64_linear_29_1267" x1="149.512" y1="127.682" x2="152.623" y2="121.55" gradientUnits="userSpaceOnUse">
<stop stop-color="#0561E2"/>
<stop offset="1" stop-color="#001737"/>
</linearGradient>
<linearGradient id="paint65_linear_29_1267" x1="162.366" y1="134.19" x2="163.868" y2="131.23" gradientUnits="userSpaceOnUse">
<stop stop-color="#0561E2"/>
<stop offset="1" stop-color="#001737"/>
</linearGradient>
<linearGradient id="paint66_linear_29_1267" x1="100.31" y1="112.956" x2="103.421" y2="106.824" gradientUnits="userSpaceOnUse">
<stop stop-color="#0561E2"/>
<stop offset="1" stop-color="#001737"/>
</linearGradient>
<linearGradient id="paint67_linear_29_1267" x1="112.604" y1="120.201" x2="115.715" y2="114.069" gradientUnits="userSpaceOnUse">
<stop stop-color="#0561E2"/>
<stop offset="1" stop-color="#001737"/>
</linearGradient>
<linearGradient id="paint68_linear_29_1267" x1="124.899" y1="127.472" x2="128.009" y2="121.339" gradientUnits="userSpaceOnUse">
<stop stop-color="#0561E2"/>
<stop offset="1" stop-color="#001737"/>
</linearGradient>
<linearGradient id="paint69_linear_29_1267" x1="137.192" y1="134.742" x2="140.303" y2="128.61" gradientUnits="userSpaceOnUse">
<stop stop-color="#0561E2"/>
<stop offset="1" stop-color="#001737"/>
</linearGradient>
<linearGradient id="paint70_linear_29_1267" x1="150.073" y1="141.25" x2="151.574" y2="138.289" gradientUnits="userSpaceOnUse">
<stop stop-color="#0561E2"/>
<stop offset="1" stop-color="#001737"/>
</linearGradient>
<linearGradient id="paint71_linear_29_1267" x1="162.366" y1="148.52" x2="163.868" y2="145.559" gradientUnits="userSpaceOnUse">
<stop stop-color="#0561E2"/>
<stop offset="1" stop-color="#001737"/>
</linearGradient>
<linearGradient id="paint72_linear_29_1267" x1="100.871" y1="126.497" x2="102.373" y2="123.536" gradientUnits="userSpaceOnUse">
<stop stop-color="#0561E2"/>
<stop offset="1" stop-color="#001737"/>
</linearGradient>
<linearGradient id="paint73_linear_29_1267" x1="113.165" y1="133.767" x2="114.667" y2="130.807" gradientUnits="userSpaceOnUse">
<stop stop-color="#0561E2"/>
<stop offset="1" stop-color="#001737"/>
</linearGradient>
<linearGradient id="paint74_linear_29_1267" x1="125.458" y1="141.038" x2="126.96" y2="138.077" gradientUnits="userSpaceOnUse">
<stop stop-color="#0561E2"/>
<stop offset="1" stop-color="#001737"/>
</linearGradient>
<linearGradient id="paint75_linear_29_1267" x1="137.753" y1="148.308" x2="139.254" y2="145.348" gradientUnits="userSpaceOnUse">
<stop stop-color="#0561E2"/>
<stop offset="1" stop-color="#001737"/>
</linearGradient>
<linearGradient id="paint76_linear_29_1267" x1="150.073" y1="155.578" x2="151.574" y2="152.618" gradientUnits="userSpaceOnUse">
<stop stop-color="#0561E2"/>
<stop offset="1" stop-color="#001737"/>
</linearGradient>
<linearGradient id="paint77_linear_29_1267" x1="100.871" y1="140.826" x2="102.373" y2="137.865" gradientUnits="userSpaceOnUse">
<stop stop-color="#0561E2"/>
<stop offset="1" stop-color="#001737"/>
</linearGradient>
<linearGradient id="paint78_linear_29_1267" x1="113.165" y1="148.096" x2="114.667" y2="145.136" gradientUnits="userSpaceOnUse">
<stop stop-color="#0561E2"/>
<stop offset="1" stop-color="#001737"/>
</linearGradient>
<linearGradient id="paint79_linear_29_1267" x1="125.458" y1="155.367" x2="126.96" y2="152.406" gradientUnits="userSpaceOnUse">
<stop stop-color="#0561E2"/>
<stop offset="1" stop-color="#001737"/>
</linearGradient>
<linearGradient id="paint80_linear_29_1267" x1="137.753" y1="162.637" x2="139.254" y2="159.677" gradientUnits="userSpaceOnUse">
<stop stop-color="#0561E2"/>
<stop offset="1" stop-color="#001737"/>
</linearGradient>
<linearGradient id="paint81_linear_29_1267" x1="100.871" y1="155.155" x2="102.373" y2="152.195" gradientUnits="userSpaceOnUse">
<stop stop-color="#0561E2"/>
<stop offset="1" stop-color="#001737"/>
</linearGradient>
<linearGradient id="paint82_linear_29_1267" x1="113.165" y1="162.426" x2="114.667" y2="159.465" gradientUnits="userSpaceOnUse">
<stop stop-color="#0561E2"/>
<stop offset="1" stop-color="#001737"/>
</linearGradient>
<linearGradient id="paint83_linear_29_1267" x1="125.458" y1="169.696" x2="126.96" y2="166.736" gradientUnits="userSpaceOnUse">
<stop stop-color="#0561E2"/>
<stop offset="1" stop-color="#001737"/>
</linearGradient>
<linearGradient id="paint84_linear_29_1267" x1="100.871" y1="169.484" x2="102.373" y2="166.524" gradientUnits="userSpaceOnUse">
<stop stop-color="#0561E2"/>
<stop offset="1" stop-color="#001737"/>
</linearGradient>
<linearGradient id="paint85_linear_29_1267" x1="113.165" y1="176.755" x2="114.667" y2="173.794" gradientUnits="userSpaceOnUse">
<stop stop-color="#0561E2"/>
<stop offset="1" stop-color="#001737"/>
</linearGradient>
<linearGradient id="paint86_linear_29_1267" x1="100.871" y1="183.815" x2="102.373" y2="180.854" gradientUnits="userSpaceOnUse">
<stop stop-color="#0561E2"/>
<stop offset="1" stop-color="#001737"/>
</linearGradient>
<linearGradient id="paint87_linear_29_1267" x1="99.6024" y1="37.8225" x2="101.104" y2="34.8621" gradientUnits="userSpaceOnUse">
<stop stop-color="#0561E2"/>
<stop offset="1" stop-color="#001737"/>
</linearGradient>
<linearGradient id="paint88_linear_29_1267" x1="87.3083" y1="45.093" x2="88.81" y2="42.1326" gradientUnits="userSpaceOnUse">
<stop stop-color="#0561E2"/>
<stop offset="1" stop-color="#001737"/>
</linearGradient>
<linearGradient id="paint89_linear_29_1267" x1="75.0141" y1="52.3635" x2="76.5158" y2="49.4031" gradientUnits="userSpaceOnUse">
<stop stop-color="#0561E2"/>
<stop offset="1" stop-color="#001737"/>
</linearGradient>
<linearGradient id="paint90_linear_29_1267" x1="62.7206" y1="59.634" x2="64.2223" y2="56.6736" gradientUnits="userSpaceOnUse">
<stop stop-color="#0561E2"/>
<stop offset="1" stop-color="#001737"/>
</linearGradient>
<linearGradient id="paint91_linear_29_1267" x1="50.4271" y1="66.9048" x2="51.9288" y2="63.9443" gradientUnits="userSpaceOnUse">
<stop stop-color="#0561E2"/>
<stop offset="1" stop-color="#001737"/>
</linearGradient>
<linearGradient id="paint92_linear_29_1267" x1="99.6024" y1="52.1531" x2="101.104" y2="49.1926" gradientUnits="userSpaceOnUse">
<stop stop-color="#0561E2"/>
<stop offset="1" stop-color="#001737"/>
</linearGradient>
<linearGradient id="paint93_linear_29_1267" x1="87.3083" y1="59.4236" x2="88.81" y2="56.4631" gradientUnits="userSpaceOnUse">
<stop stop-color="#0561E2"/>
<stop offset="1" stop-color="#001737"/>
</linearGradient>
<linearGradient id="paint94_linear_29_1267" x1="75.0141" y1="66.6943" x2="76.5158" y2="63.7339" gradientUnits="userSpaceOnUse">
<stop stop-color="#0561E2"/>
<stop offset="1" stop-color="#001737"/>
</linearGradient>
<linearGradient id="paint95_linear_29_1267" x1="99.4171" y1="37.8225" x2="100.919" y2="34.8621" gradientUnits="userSpaceOnUse">
<stop stop-color="#0561E2"/>
<stop offset="1" stop-color="#001737"/>
</linearGradient>
<linearGradient id="paint96_linear_29_1267" x1="111.711" y1="45.093" x2="113.212" y2="42.1326" gradientUnits="userSpaceOnUse">
<stop stop-color="#0561E2"/>
<stop offset="1" stop-color="#001737"/>
</linearGradient>
<linearGradient id="paint97_linear_29_1267" x1="124.005" y1="52.3635" x2="125.507" y2="49.4031" gradientUnits="userSpaceOnUse">
<stop stop-color="#0561E2"/>
<stop offset="1" stop-color="#001737"/>
</linearGradient>
<linearGradient id="paint98_linear_29_1267" x1="136.298" y1="59.634" x2="137.8" y2="56.6736" gradientUnits="userSpaceOnUse">
<stop stop-color="#0561E2"/>
<stop offset="1" stop-color="#001737"/>
</linearGradient>
<linearGradient id="paint99_linear_29_1267" x1="148.618" y1="66.9048" x2="150.12" y2="63.9443" gradientUnits="userSpaceOnUse">
<stop stop-color="#0561E2"/>
<stop offset="1" stop-color="#001737"/>
</linearGradient>
<linearGradient id="paint100_linear_29_1267" x1="99.4171" y1="52.1531" x2="100.919" y2="49.1926" gradientUnits="userSpaceOnUse">
<stop stop-color="#0561E2"/>
<stop offset="1" stop-color="#001737"/>
</linearGradient>
<linearGradient id="paint101_linear_29_1267" x1="111.711" y1="59.4236" x2="113.212" y2="56.4631" gradientUnits="userSpaceOnUse">
<stop stop-color="#0561E2"/>
<stop offset="1" stop-color="#001737"/>
</linearGradient>
<linearGradient id="paint102_linear_29_1267" x1="124.005" y1="66.6943" x2="125.507" y2="63.7339" gradientUnits="userSpaceOnUse">
<stop stop-color="#0561E2"/>
<stop offset="1" stop-color="#001737"/>
</linearGradient>
</defs>
</svg>
