<svg width="431" height="262" viewBox="0 0 431 262" fill="none" xmlns="http://www.w3.org/2000/svg">
<path d="M248.616 159.976H213.032L207.144 177H188.328L220.456 87.528H241.32L273.448 177H254.504L248.616 159.976ZM243.752 145.64L230.824 108.264L217.896 145.64H243.752ZM370.065 87.656V177H352.145V118.888L328.209 177H314.641L290.577 118.888V177H272.657V87.656H293.009L321.425 154.088L349.841 87.656H370.065ZM392.902 87.656V177H374.982V87.656H392.902Z" fill="#F2F7F2"/>
<path d="M36.1104 99.2706C36.7235 99.2706 37.2208 98.7736 37.2208 98.1602C37.2208 97.5471 36.7235 97.0498 36.1104 97.0498C35.497 97.0498 35 97.5471 35 98.1602C35 98.7736 35.497 99.2706 36.1104 99.2706Z" fill="#F2F7F2"/>
<path d="M60.6981 99.0856C61.3114 99.0856 61.8085 98.5885 61.8085 97.9752C61.8085 97.3618 61.3114 96.8647 60.6981 96.8647C60.085 96.8647 59.5876 97.3618 59.5876 97.9752C59.5876 98.5885 60.085 99.0856 60.6981 99.0856Z" fill="#F2F7F2"/>
<path d="M48.4046 106.331C49.018 106.331 49.515 105.833 49.515 105.22C49.515 104.607 49.018 104.11 48.4046 104.11C47.7915 104.11 47.2942 104.607 47.2942 105.22C47.2942 105.833 47.7915 106.331 48.4046 106.331Z" fill="#F2F7F2"/>
<path d="M36.1104 113.601C36.7235 113.601 37.2208 113.103 37.2208 112.49C37.2208 111.877 36.7235 111.38 36.1104 111.38C35.497 111.38 35 111.877 35 112.49C35 113.103 35.497 113.601 36.1104 113.601Z" fill="#F2F7F2"/>
<path d="M97.5794 92.7941C98.8498 92.7941 99.8796 91.7641 99.8796 90.494C99.8796 89.2236 98.8498 88.1938 97.5794 88.1938C96.3093 88.1938 95.2793 89.2236 95.2793 90.494C95.2793 91.7641 96.3093 92.7941 97.5794 92.7941Z" fill="#F2F7F2"/>
<path d="M85.286 100.065C86.5563 100.065 87.5861 99.0346 87.5861 97.7645C87.5861 96.4941 86.5563 95.4644 85.286 95.4644C84.0159 95.4644 82.9858 96.4941 82.9858 97.7645C82.9858 99.0346 84.0159 100.065 85.286 100.065Z" fill="#F2F7F2"/>
<path d="M72.9918 107.335C74.2621 107.335 75.2919 106.305 75.2919 105.035C75.2919 103.765 74.2621 102.735 72.9918 102.735C71.7214 102.735 70.6917 103.765 70.6917 105.035C70.6917 106.305 71.7214 107.335 72.9918 107.335Z" fill="#F2F7F2"/>
<path d="M60.6983 114.606C61.9687 114.606 62.9984 113.576 62.9984 112.305C62.9984 111.035 61.9687 110.005 60.6983 110.005C59.428 110.005 58.3982 111.035 58.3982 112.305C58.3982 113.576 59.428 114.606 60.6983 114.606Z" fill="#F2F7F2"/>
<path d="M48.4046 121.849C49.675 121.849 50.7047 120.819 50.7047 119.549C50.7047 118.279 49.675 117.249 48.4046 117.249C47.1343 117.249 46.1045 118.279 46.1045 119.549C46.1045 120.819 47.1343 121.849 48.4046 121.849Z" fill="#F2F7F2"/>
<path d="M36.1104 127.929C36.7235 127.929 37.2208 127.432 37.2208 126.818C37.2208 126.205 36.7235 125.708 36.1104 125.708C35.497 125.708 35 126.205 35 126.818C35 127.432 35.497 127.929 36.1104 127.929Z" fill="#F2F7F2"/>
<path d="M97.5797 109.423C100.12 109.423 102.18 107.364 102.18 104.823C102.18 102.282 100.12 100.223 97.5797 100.223C95.039 100.223 92.9795 102.282 92.9795 104.823C92.9795 107.364 95.039 109.423 97.5797 109.423Z" fill="#F2F7F2"/>
<path d="M85.2863 116.694C87.8267 116.694 89.8865 114.634 89.8865 112.093C89.8865 109.553 87.8267 107.493 85.2863 107.493C82.7456 107.493 80.686 109.553 80.686 112.093C80.686 114.634 82.7456 116.694 85.2863 116.694Z" fill="#F2F7F2"/>
<path d="M72.9921 123.964C75.5328 123.964 77.5923 121.905 77.5923 119.364C77.5923 116.823 75.5328 114.764 72.9921 114.764C70.4516 114.764 68.3918 116.823 68.3918 119.364C68.3918 121.905 70.4516 123.964 72.9921 123.964Z" fill="#F2F7F2"/>
<path d="M60.6979 131.207C63.2384 131.207 65.2982 129.148 65.2982 126.607C65.2982 124.066 63.2384 122.007 60.6979 122.007C58.1572 122.007 56.0977 124.066 56.0977 126.607C56.0977 129.148 58.1572 131.207 60.6979 131.207Z" fill="#F2F7F2"/>
<path d="M48.4046 136.178C49.675 136.178 50.7047 135.149 50.7047 133.878C50.7047 132.608 49.675 131.578 48.4046 131.578C47.1343 131.578 46.1045 132.608 46.1045 133.878C46.1045 135.149 47.1343 136.178 48.4046 136.178Z" fill="#F2F7F2"/>
<path d="M36.1104 142.258C36.7235 142.258 37.2208 141.761 37.2208 141.148C37.2208 140.535 36.7235 140.038 36.1104 140.038C35.497 140.038 35 140.535 35 141.148C35 141.761 35.497 142.258 36.1104 142.258Z" fill="#F2F7F2"/>
<path d="M97.5797 123.753C100.12 123.753 102.18 121.693 102.18 119.153C102.18 116.612 100.12 114.552 97.5797 114.552C95.039 114.552 92.9795 116.612 92.9795 119.153C92.9795 121.693 95.039 123.753 97.5797 123.753Z" fill="#F2F7F2"/>
<path d="M85.2863 131.023C87.8267 131.023 89.8865 128.963 89.8865 126.423C89.8865 123.882 87.8267 121.822 85.2863 121.822C82.7456 121.822 80.686 123.882 80.686 126.423C80.686 128.963 82.7456 131.023 85.2863 131.023Z" fill="#F2F7F2"/>
<path d="M72.9921 138.266C75.5328 138.266 77.5923 136.207 77.5923 133.666C77.5923 131.126 75.5328 129.066 72.9921 129.066C70.4516 129.066 68.3918 131.126 68.3918 133.666C68.3918 136.207 70.4516 138.266 72.9921 138.266Z" fill="#F2F7F2"/>
<path d="M60.6979 145.537C63.2384 145.537 65.2982 143.477 65.2982 140.937C65.2982 138.396 63.2384 136.336 60.6979 136.336C58.1572 136.336 56.0977 138.396 56.0977 140.937C56.0977 143.477 58.1572 145.537 60.6979 145.537Z" fill="#F2F7F2"/>
<path d="M48.4046 150.507C49.675 150.507 50.7047 149.478 50.7047 148.207C50.7047 146.937 49.675 145.907 48.4046 145.907C47.1343 145.907 46.1045 146.937 46.1045 148.207C46.1045 149.478 47.1343 150.507 48.4046 150.507Z" fill="#F2F7F2"/>
<path d="M36.1104 156.589C36.7235 156.589 37.2208 156.092 37.2208 155.479C37.2208 154.865 36.7235 154.368 36.1104 154.368C35.497 154.368 35 154.865 35 155.479C35 156.092 35.497 156.589 36.1104 156.589Z" fill="#F2F7F2"/>
<path d="M97.5794 135.782C98.8498 135.782 99.8796 134.752 99.8796 133.482C99.8796 132.211 98.8498 131.182 97.5794 131.182C96.3093 131.182 95.2793 132.211 95.2793 133.482C95.2793 134.752 96.3093 135.782 97.5794 135.782Z" fill="#F2F7F2"/>
<path d="M85.286 143.027C86.5563 143.027 87.5861 141.997 87.5861 140.727C87.5861 139.457 86.5563 138.427 85.286 138.427C84.0159 138.427 82.9858 139.457 82.9858 140.727C82.9858 141.997 84.0159 143.027 85.286 143.027Z" fill="#F2F7F2"/>
<path d="M72.9918 150.297C74.2621 150.297 75.2919 149.267 75.2919 147.997C75.2919 146.727 74.2621 145.697 72.9918 145.697C71.7214 145.697 70.6917 146.727 70.6917 147.997C70.6917 149.267 71.7214 150.297 72.9918 150.297Z" fill="#F2F7F2"/>
<path d="M60.6983 157.568C61.9687 157.568 62.9984 156.538 62.9984 155.267C62.9984 153.997 61.9687 152.967 60.6983 152.967C59.428 152.967 58.3982 153.997 58.3982 155.267C58.3982 156.538 59.428 157.568 60.6983 157.568Z" fill="#F2F7F2"/>
<path d="M48.4046 163.648C49.018 163.648 49.515 163.151 49.515 162.538C49.515 161.925 49.018 161.427 48.4046 161.427C47.7915 161.427 47.2942 161.925 47.2942 162.538C47.2942 163.151 47.7915 163.648 48.4046 163.648Z" fill="#F2F7F2"/>
<path d="M36.1104 170.918C36.7235 170.918 37.2208 170.421 37.2208 169.808C37.2208 169.195 36.7235 168.697 36.1104 168.697C35.497 168.697 35 169.195 35 169.808C35 170.421 35.497 170.918 36.1104 170.918Z" fill="#F2F7F2"/>
<path d="M97.5792 148.895C98.1923 148.895 98.6896 148.398 98.6896 147.785C98.6896 147.172 98.1923 146.674 97.5792 146.674C96.9658 146.674 96.4688 147.172 96.4688 147.785C96.4688 148.398 96.9658 148.895 97.5792 148.895Z" fill="#F2F7F2"/>
<path d="M85.2857 156.166C85.8991 156.166 86.3961 155.669 86.3961 155.055C86.3961 154.442 85.8991 153.945 85.2857 153.945C84.6726 153.945 84.1753 154.442 84.1753 155.055C84.1753 155.669 84.6726 156.166 85.2857 156.166Z" fill="#F2F7F2"/>
<path d="M72.9922 163.436C73.6056 163.436 74.1026 162.939 74.1026 162.326C74.1026 161.713 73.6056 161.215 72.9922 161.215C72.3789 161.215 71.8818 161.713 71.8818 162.326C71.8818 162.939 72.3789 163.436 72.9922 163.436Z" fill="#F2F7F2"/>
<path d="M60.6981 170.707C61.3114 170.707 61.8085 170.21 61.8085 169.596C61.8085 168.983 61.3114 168.486 60.6981 168.486C60.085 168.486 59.5876 168.983 59.5876 169.596C59.5876 170.21 60.085 170.707 60.6981 170.707Z" fill="#F2F7F2"/>
<path d="M48.4046 177.977C49.018 177.977 49.515 177.48 49.515 176.866C49.515 176.253 49.018 175.756 48.4046 175.756C47.7915 175.756 47.2942 176.253 47.2942 176.866C47.2942 177.48 47.7915 177.977 48.4046 177.977Z" fill="#F2F7F2"/>
<path d="M97.5792 163.224C98.1923 163.224 98.6896 162.727 98.6896 162.114C98.6896 161.5 98.1923 161.003 97.5792 161.003C96.9658 161.003 96.4688 161.5 96.4688 162.114C96.4688 162.727 96.9658 163.224 97.5792 163.224Z" fill="#F2F7F2"/>
<path d="M85.2857 170.495C85.8991 170.495 86.3961 169.998 86.3961 169.384C86.3961 168.771 85.8991 168.274 85.2857 168.274C84.6726 168.274 84.1753 168.771 84.1753 169.384C84.1753 169.998 84.6726 170.495 85.2857 170.495Z" fill="#F2F7F2"/>
<path d="M72.9922 177.765C73.6056 177.765 74.1026 177.268 74.1026 176.655C74.1026 176.041 73.6056 175.544 72.9922 175.544C72.3789 175.544 71.8818 176.041 71.8818 176.655C71.8818 177.268 72.3789 177.765 72.9922 177.765Z" fill="#F2F7F2"/>
<path d="M60.6981 185.036C61.3114 185.036 61.8085 184.539 61.8085 183.925C61.8085 183.312 61.3114 182.815 60.6981 182.815C60.085 182.815 59.5876 183.312 59.5876 183.925C59.5876 184.539 60.085 185.036 60.6981 185.036Z" fill="#F2F7F2"/>
<path d="M97.5792 177.554C98.1923 177.554 98.6896 177.057 98.6896 176.443C98.6896 175.83 98.1923 175.333 97.5792 175.333C96.9658 175.333 96.4688 175.83 96.4688 176.443C96.4688 177.057 96.9658 177.554 97.5792 177.554Z" fill="#F2F7F2"/>
<path d="M85.2857 184.824C85.8991 184.824 86.3961 184.327 86.3961 183.714C86.3961 183.101 85.8991 182.604 85.2857 182.604C84.6726 182.604 84.1753 183.101 84.1753 183.714C84.1753 184.327 84.6726 184.824 85.2857 184.824Z" fill="#F2F7F2"/>
<path d="M72.9922 192.095C73.6056 192.095 74.1026 191.598 74.1026 190.984C74.1026 190.371 73.6056 189.874 72.9922 189.874C72.3789 189.874 71.8818 190.371 71.8818 190.984C71.8818 191.598 72.3789 192.095 72.9922 192.095Z" fill="#F2F7F2"/>
<path d="M97.5792 191.883C98.1923 191.883 98.6896 191.386 98.6896 190.773C98.6896 190.159 98.1923 189.662 97.5792 189.662C96.9658 189.662 96.4688 190.159 96.4688 190.773C96.4688 191.386 96.9658 191.883 97.5792 191.883Z" fill="#F2F7F2"/>
<path d="M85.2857 199.153C85.8991 199.153 86.3961 198.656 86.3961 198.043C86.3961 197.43 85.8991 196.933 85.2857 196.933C84.6726 196.933 84.1753 197.43 84.1753 198.043C84.1753 198.656 84.6726 199.153 85.2857 199.153Z" fill="#F2F7F2"/>
<path d="M97.5792 206.213C98.1923 206.213 98.6896 205.716 98.6896 205.103C98.6896 204.49 98.1923 203.993 97.5792 203.993C96.9658 203.993 96.4688 204.49 96.4688 205.103C96.4688 205.716 96.9658 206.213 97.5792 206.213Z" fill="#F2F7F2"/>
<path d="M158.89 99.2706C159.503 99.2706 160 98.7736 160 98.1602C160 97.5471 159.503 97.0498 158.89 97.0498C158.276 97.0498 157.779 97.5471 157.779 98.1602C157.779 98.7736 158.276 99.2706 158.89 99.2706Z" fill="#F2F7F2"/>
<path d="M134.276 99.0856C134.889 99.0856 135.386 98.5885 135.386 97.9752C135.386 97.3618 134.889 96.8647 134.276 96.8647C133.663 96.8647 133.166 97.3618 133.166 97.9752C133.166 98.5885 133.663 99.0856 134.276 99.0856Z" fill="#F2F7F2"/>
<path d="M146.596 106.331C147.209 106.331 147.706 105.833 147.706 105.22C147.706 104.607 147.209 104.11 146.596 104.11C145.983 104.11 145.485 104.607 145.485 105.22C145.485 105.833 145.983 106.331 146.596 106.331Z" fill="#F2F7F2"/>
<path d="M158.89 113.601C159.503 113.601 160 113.103 160 112.49C160 111.877 159.503 111.38 158.89 111.38C158.276 111.38 157.779 111.877 157.779 112.49C157.779 113.103 158.276 113.601 158.89 113.601Z" fill="#F2F7F2"/>
<path d="M97.3941 92.7941C98.6645 92.7941 99.6942 91.7641 99.6942 90.494C99.6942 89.2236 98.6645 88.1938 97.3941 88.1938C96.1238 88.1938 95.094 89.2236 95.094 90.494C95.094 91.7641 96.1238 92.7941 97.3941 92.7941Z" fill="#F2F7F2"/>
<path d="M109.689 100.065C110.959 100.065 111.988 99.0346 111.988 97.7645C111.988 96.4941 110.959 95.4644 109.689 95.4644C108.418 95.4644 107.388 96.4941 107.388 97.7645C107.388 99.0346 108.418 100.065 109.689 100.065Z" fill="#F2F7F2"/>
<path d="M121.983 107.335C123.253 107.335 124.283 106.305 124.283 105.035C124.283 103.765 123.253 102.735 121.983 102.735C120.712 102.735 119.682 103.765 119.682 105.035C119.682 106.305 120.712 107.335 121.983 107.335Z" fill="#F2F7F2"/>
<path d="M134.276 114.606C135.546 114.606 136.576 113.576 136.576 112.305C136.576 111.035 135.546 110.005 134.276 110.005C133.006 110.005 131.976 111.035 131.976 112.305C131.976 113.576 133.006 114.606 134.276 114.606Z" fill="#F2F7F2"/>
<path d="M146.596 121.849C147.866 121.849 148.896 120.819 148.896 119.549C148.896 118.279 147.866 117.249 146.596 117.249C145.326 117.249 144.296 118.279 144.296 119.549C144.296 120.819 145.326 121.849 146.596 121.849Z" fill="#F2F7F2"/>
<path d="M158.89 127.929C159.503 127.929 160 127.432 160 126.818C160 126.205 159.503 125.708 158.89 125.708C158.276 125.708 157.779 126.205 157.779 126.818C157.779 127.432 158.276 127.929 158.89 127.929Z" fill="#F2F7F2"/>
<path d="M97.3944 109.423C99.9352 109.423 101.995 107.364 101.995 104.823C101.995 102.282 99.9352 100.223 97.3944 100.223C94.8537 100.223 92.7942 102.282 92.7942 104.823C92.7942 107.364 94.8537 109.423 97.3944 109.423Z" fill="#F2F7F2"/>
<path d="M109.689 116.694C112.229 116.694 114.289 114.634 114.289 112.093C114.289 109.553 112.229 107.493 109.689 107.493C107.148 107.493 105.088 109.553 105.088 112.093C105.088 114.634 107.148 116.694 109.689 116.694Z" fill="#F2F7F2"/>
<path d="M121.982 123.964C124.523 123.964 126.582 121.905 126.582 119.364C126.582 116.823 124.523 114.764 121.982 114.764C119.441 114.764 117.382 116.823 117.382 119.364C117.382 121.905 119.441 123.964 121.982 123.964Z" fill="#F2F7F2"/>
<path d="M134.276 131.207C136.816 131.207 138.876 129.148 138.876 126.607C138.876 124.066 136.816 122.007 134.276 122.007C131.735 122.007 129.676 124.066 129.676 126.607C129.676 129.148 131.735 131.207 134.276 131.207Z" fill="#F2F7F2"/>
<path d="M146.596 136.178C147.866 136.178 148.896 135.149 148.896 133.878C148.896 132.608 147.866 131.578 146.596 131.578C145.326 131.578 144.296 132.608 144.296 133.878C144.296 135.149 145.326 136.178 146.596 136.178Z" fill="#F2F7F2"/>
<path d="M158.89 142.258C159.503 142.258 160 141.761 160 141.148C160 140.535 159.503 140.038 158.89 140.038C158.276 140.038 157.779 140.535 157.779 141.148C157.779 141.761 158.276 142.258 158.89 142.258Z" fill="#F2F7F2"/>
<path d="M97.3944 123.753C99.9352 123.753 101.995 121.693 101.995 119.153C101.995 116.612 99.9352 114.552 97.3944 114.552C94.8537 114.552 92.7942 116.612 92.7942 119.153C92.7942 121.693 94.8537 123.753 97.3944 123.753Z" fill="#F2F7F2"/>
<path d="M109.689 131.023C112.229 131.023 114.289 128.963 114.289 126.423C114.289 123.882 112.229 121.822 109.689 121.822C107.148 121.822 105.088 123.882 105.088 126.423C105.088 128.963 107.148 131.023 109.689 131.023Z" fill="#F2F7F2"/>
<path d="M121.982 138.266C124.523 138.266 126.582 136.207 126.582 133.666C126.582 131.126 124.523 129.066 121.982 129.066C119.441 129.066 117.382 131.126 117.382 133.666C117.382 136.207 119.441 138.266 121.982 138.266Z" fill="#F2F7F2"/>
<path d="M134.276 145.537C136.816 145.537 138.876 143.477 138.876 140.937C138.876 138.396 136.816 136.336 134.276 136.336C131.735 136.336 129.676 138.396 129.676 140.937C129.676 143.477 131.735 145.537 134.276 145.537Z" fill="#F2F7F2"/>
<path d="M146.596 150.507C147.866 150.507 148.896 149.478 148.896 148.207C148.896 146.937 147.866 145.907 146.596 145.907C145.326 145.907 144.296 146.937 144.296 148.207C144.296 149.478 145.326 150.507 146.596 150.507Z" fill="#F2F7F2"/>
<path d="M158.89 156.589C159.503 156.589 160 156.092 160 155.479C160 154.865 159.503 154.368 158.89 154.368C158.276 154.368 157.779 154.865 157.779 155.479C157.779 156.092 158.276 156.589 158.89 156.589Z" fill="#F2F7F2"/>
<path d="M97.3941 135.782C98.6645 135.782 99.6942 134.752 99.6942 133.482C99.6942 132.211 98.6645 131.182 97.3941 131.182C96.1238 131.182 95.094 132.211 95.094 133.482C95.094 134.752 96.1238 135.782 97.3941 135.782Z" fill="#F2F7F2"/>
<path d="M109.689 143.027C110.959 143.027 111.988 141.997 111.988 140.727C111.988 139.457 110.959 138.427 109.689 138.427C108.418 138.427 107.388 139.457 107.388 140.727C107.388 141.997 108.418 143.027 109.689 143.027Z" fill="#F2F7F2"/>
<path d="M121.983 150.297C123.253 150.297 124.283 149.267 124.283 147.997C124.283 146.727 123.253 145.697 121.983 145.697C120.712 145.697 119.682 146.727 119.682 147.997C119.682 149.267 120.712 150.297 121.983 150.297Z" fill="#F2F7F2"/>
<path d="M134.276 157.568C135.546 157.568 136.576 156.538 136.576 155.267C136.576 153.997 135.546 152.967 134.276 152.967C133.006 152.967 131.976 153.997 131.976 155.267C131.976 156.538 133.006 157.568 134.276 157.568Z" fill="#F2F7F2"/>
<path d="M146.596 163.648C147.209 163.648 147.706 163.151 147.706 162.538C147.706 161.925 147.209 161.427 146.596 161.427C145.983 161.427 145.485 161.925 145.485 162.538C145.485 163.151 145.983 163.648 146.596 163.648Z" fill="#F2F7F2"/>
<path d="M158.89 170.918C159.503 170.918 160 170.421 160 169.808C160 169.195 159.503 168.697 158.89 168.697C158.276 168.697 157.779 169.195 157.779 169.808C157.779 170.421 158.276 170.918 158.89 170.918Z" fill="#F2F7F2"/>
<path d="M97.3946 148.895C98.0077 148.895 98.505 148.398 98.505 147.785C98.505 147.172 98.0077 146.674 97.3946 146.674C96.7812 146.674 96.2842 147.172 96.2842 147.785C96.2842 148.398 96.7812 148.895 97.3946 148.895Z" fill="#F2F7F2"/>
<path d="M109.688 156.166C110.302 156.166 110.799 155.669 110.799 155.055C110.799 154.442 110.302 153.945 109.688 153.945C109.075 153.945 108.578 154.442 108.578 155.055C108.578 155.669 109.075 156.166 109.688 156.166Z" fill="#F2F7F2"/>
<path d="M121.982 163.436C122.595 163.436 123.092 162.939 123.092 162.326C123.092 161.713 122.595 161.215 121.982 161.215C121.368 161.215 120.871 161.713 120.871 162.326C120.871 162.939 121.368 163.436 121.982 163.436Z" fill="#F2F7F2"/>
<path d="M134.276 170.707C134.889 170.707 135.386 170.21 135.386 169.596C135.386 168.983 134.889 168.486 134.276 168.486C133.663 168.486 133.166 168.983 133.166 169.596C133.166 170.21 133.663 170.707 134.276 170.707Z" fill="#F2F7F2"/>
<path d="M146.596 177.977C147.209 177.977 147.706 177.48 147.706 176.866C147.706 176.253 147.209 175.756 146.596 175.756C145.983 175.756 145.485 176.253 145.485 176.866C145.485 177.48 145.983 177.977 146.596 177.977Z" fill="#F2F7F2"/>
<path d="M97.3946 163.224C98.0077 163.224 98.505 162.727 98.505 162.114C98.505 161.5 98.0077 161.003 97.3946 161.003C96.7812 161.003 96.2842 161.5 96.2842 162.114C96.2842 162.727 96.7812 163.224 97.3946 163.224Z" fill="#F2F7F2"/>
<path d="M109.688 170.495C110.302 170.495 110.799 169.998 110.799 169.384C110.799 168.771 110.302 168.274 109.688 168.274C109.075 168.274 108.578 168.771 108.578 169.384C108.578 169.998 109.075 170.495 109.688 170.495Z" fill="#F2F7F2"/>
<path d="M121.982 177.765C122.595 177.765 123.092 177.268 123.092 176.655C123.092 176.041 122.595 175.544 121.982 175.544C121.368 175.544 120.871 176.041 120.871 176.655C120.871 177.268 121.368 177.765 121.982 177.765Z" fill="#F2F7F2"/>
<path d="M134.276 185.036C134.889 185.036 135.386 184.539 135.386 183.925C135.386 183.312 134.889 182.815 134.276 182.815C133.663 182.815 133.166 183.312 133.166 183.925C133.166 184.539 133.663 185.036 134.276 185.036Z" fill="#F2F7F2"/>
<path d="M97.3946 177.554C98.0077 177.554 98.505 177.057 98.505 176.443C98.505 175.83 98.0077 175.333 97.3946 175.333C96.7812 175.333 96.2842 175.83 96.2842 176.443C96.2842 177.057 96.7812 177.554 97.3946 177.554Z" fill="#F2F7F2"/>
<path d="M109.688 184.824C110.302 184.824 110.799 184.327 110.799 183.714C110.799 183.101 110.302 182.604 109.688 182.604C109.075 182.604 108.578 183.101 108.578 183.714C108.578 184.327 109.075 184.824 109.688 184.824Z" fill="#F2F7F2"/>
<path d="M121.982 192.095C122.595 192.095 123.092 191.598 123.092 190.984C123.092 190.371 122.595 189.874 121.982 189.874C121.368 189.874 120.871 190.371 120.871 190.984C120.871 191.598 121.368 192.095 121.982 192.095Z" fill="#F2F7F2"/>
<path d="M97.3946 191.883C98.0077 191.883 98.505 191.386 98.505 190.773C98.505 190.159 98.0077 189.662 97.3946 189.662C96.7812 189.662 96.2842 190.159 96.2842 190.773C96.2842 191.386 96.7812 191.883 97.3946 191.883Z" fill="#F2F7F2"/>
<path d="M109.688 199.153C110.302 199.153 110.799 198.656 110.799 198.043C110.799 197.43 110.302 196.933 109.688 196.933C109.075 196.933 108.578 197.43 108.578 198.043C108.578 198.656 109.075 199.153 109.688 199.153Z" fill="#F2F7F2"/>
<path d="M97.3946 206.213C98.0077 206.213 98.505 205.716 98.505 205.103C98.505 204.49 98.0077 203.993 97.3946 203.993C96.7812 203.993 96.2842 204.49 96.2842 205.103C96.2842 205.716 96.7812 206.213 97.3946 206.213Z" fill="#F2F7F2"/>
<path d="M96.1255 60.2211C96.7386 60.2211 97.2359 59.724 97.2359 59.1106C97.2359 58.4975 96.7386 58.0002 96.1255 58.0002C95.5122 58.0002 95.0151 58.4975 95.0151 59.1106C95.0151 59.724 95.5122 60.2211 96.1255 60.2211Z" fill="#F2F7F2"/>
<path d="M83.8319 67.4916C84.445 67.4916 84.942 66.9945 84.942 66.3812C84.942 65.7681 84.445 65.2708 83.8319 65.2708C83.2185 65.2708 82.7212 65.7681 82.7212 66.3812C82.7212 66.9945 83.2185 67.4916 83.8319 67.4916Z" fill="#F2F7F2"/>
<path d="M71.5374 74.7621C72.1508 74.7621 72.6478 74.265 72.6478 73.6517C72.6478 73.0386 72.1508 72.5413 71.5374 72.5413C70.9243 72.5413 70.427 73.0386 70.427 73.6517C70.427 74.265 70.9243 74.7621 71.5374 74.7621Z" fill="#F2F7F2"/>
<path d="M59.2439 82.0326C59.857 82.0326 60.3544 81.5355 60.3544 80.9222C60.3544 80.3091 59.857 79.8118 59.2439 79.8118C58.6306 79.8118 58.1335 80.3091 58.1335 80.9222C58.1335 81.5355 58.6306 82.0326 59.2439 82.0326Z" fill="#F2F7F2"/>
<path d="M46.9502 89.3033C47.5633 89.3033 48.0607 88.8063 48.0607 88.1929C48.0607 87.5798 47.5633 87.0825 46.9502 87.0825C46.3369 87.0825 45.8398 87.5798 45.8398 88.1929C45.8398 88.8063 46.3369 89.3033 46.9502 89.3033Z" fill="#F2F7F2"/>
<path d="M96.1255 74.5516C96.7386 74.5516 97.2359 74.0543 97.2359 73.4412C97.2359 72.8278 96.7386 72.3308 96.1255 72.3308C95.5122 72.3308 95.0151 72.8278 95.0151 73.4412C95.0151 74.0543 95.5122 74.5516 96.1255 74.5516Z" fill="#F2F7F2"/>
<path d="M83.8319 81.8221C84.445 81.8221 84.942 81.3248 84.942 80.7117C84.942 80.0984 84.445 79.6013 83.8319 79.6013C83.2185 79.6013 82.7212 80.0984 82.7212 80.7117C82.7212 81.3248 83.2185 81.8221 83.8319 81.8221Z" fill="#F2F7F2"/>
<path d="M71.5374 89.0929C72.1508 89.0929 72.6478 88.5956 72.6478 87.9825C72.6478 87.3691 72.1508 86.8721 71.5374 86.8721C70.9243 86.8721 70.427 87.3691 70.427 87.9825C70.427 88.5956 70.9243 89.0929 71.5374 89.0929Z" fill="#F2F7F2"/>
<path d="M95.9405 60.2211C96.5538 60.2211 97.0509 59.724 97.0509 59.1106C97.0509 58.4975 96.5538 58.0002 95.9405 58.0002C95.3274 58.0002 94.8301 58.4975 94.8301 59.1106C94.8301 59.724 95.3274 60.2211 95.9405 60.2211Z" fill="#F2F7F2"/>
<path d="M108.234 67.4916C108.847 67.4916 109.344 66.9945 109.344 66.3812C109.344 65.7681 108.847 65.2708 108.234 65.2708C107.621 65.2708 107.124 65.7681 107.124 66.3812C107.124 66.9945 107.621 67.4916 108.234 67.4916Z" fill="#F2F7F2"/>
<path d="M120.528 74.7621C121.141 74.7621 121.639 74.265 121.639 73.6517C121.639 73.0386 121.141 72.5413 120.528 72.5413C119.915 72.5413 119.418 73.0386 119.418 73.6517C119.418 74.265 119.915 74.7621 120.528 74.7621Z" fill="#F2F7F2"/>
<path d="M132.822 82.0326C133.435 82.0326 133.932 81.5355 133.932 80.9222C133.932 80.3091 133.435 79.8118 132.822 79.8118C132.208 79.8118 131.711 80.3091 131.711 80.9222C131.711 81.5355 132.208 82.0326 132.822 82.0326Z" fill="#F2F7F2"/>
<path d="M145.142 89.3033C145.755 89.3033 146.252 88.8063 146.252 88.1929C146.252 87.5798 145.755 87.0825 145.142 87.0825C144.528 87.0825 144.031 87.5798 144.031 88.1929C144.031 88.8063 144.528 89.3033 145.142 89.3033Z" fill="#F2F7F2"/>
<path d="M95.9405 74.5516C96.5538 74.5516 97.0509 74.0543 97.0509 73.4412C97.0509 72.8278 96.5538 72.3308 95.9405 72.3308C95.3274 72.3308 94.8301 72.8278 94.8301 73.4412C94.8301 74.0543 95.3274 74.5516 95.9405 74.5516Z" fill="#F2F7F2"/>
<path d="M108.234 81.8221C108.847 81.8221 109.344 81.3248 109.344 80.7117C109.344 80.0984 108.847 79.6013 108.234 79.6013C107.621 79.6013 107.124 80.0984 107.124 80.7117C107.124 81.3248 107.621 81.8221 108.234 81.8221Z" fill="#F2F7F2"/>
<path d="M120.528 89.0929C121.141 89.0929 121.639 88.5956 121.639 87.9825C121.639 87.3691 121.141 86.8721 120.528 86.8721C119.915 86.8721 119.418 87.3691 119.418 87.9825C119.418 88.5956 119.915 89.0929 120.528 89.0929Z" fill="#F2F7F2"/>
</svg>
